<svg width="331" height="280" viewBox="0 0 331 280" fill="none" xmlns="http://www.w3.org/2000/svg">
<path d="M0 8C0 3.58173 3.58172 0 8 0H323C327.418 0 331 3.58172 331 8V271.511C331 275.929 327.418 279.511 323 279.511H8.00001C3.58173 279.511 0 275.929 0 271.511V8Z" fill="white"/>
<path d="M23.129 23.1499L20.889 19.2579H19.671V23.1499H18.075V13.4199H21.435C22.1817 13.4199 22.8117 13.5505 23.325 13.8119C23.8477 14.0732 24.235 14.4232 24.487 14.8619C24.7483 15.3005 24.879 15.7905 24.879 16.3319C24.879 16.9665 24.6923 17.5452 24.319 18.0679C23.955 18.5812 23.3903 18.9312 22.625 19.1179L25.033 23.1499H23.129ZM19.671 17.9839H21.435C22.0323 17.9839 22.4803 17.8345 22.779 17.5359C23.087 17.2372 23.241 16.8359 23.241 16.3319C23.241 15.8279 23.0917 15.4359 22.793 15.1559C22.4943 14.8665 22.0417 14.7219 21.435 14.7219H19.671V17.9839Z" fill="#0D0C22"/>
<path d="M33.9907 19.1039C33.9907 19.3932 33.972 19.6545 33.9347 19.8879H28.0407C28.0874 20.5039 28.316 20.9985 28.7267 21.3719C29.1374 21.7452 29.6414 21.9319 30.2387 21.9319C31.0974 21.9319 31.704 21.5725 32.0587 20.8539H33.7807C33.5474 21.5632 33.1227 22.1465 32.5067 22.6039C31.9 23.0519 31.144 23.2759 30.2387 23.2759C29.5014 23.2759 28.8387 23.1125 28.2507 22.7859C27.672 22.4499 27.2147 21.9832 26.8787 21.3859C26.552 20.7792 26.3887 20.0792 26.3887 19.2859C26.3887 18.4925 26.5474 17.7972 26.8647 17.1999C27.1914 16.5932 27.644 16.1265 28.2227 15.7999C28.8107 15.4732 29.4827 15.3099 30.2387 15.3099C30.9667 15.3099 31.6154 15.4685 32.1847 15.7859C32.754 16.1032 33.1974 16.5512 33.5147 17.1299C33.832 17.6992 33.9907 18.3572 33.9907 19.1039ZM32.3247 18.5999C32.3154 18.0119 32.1054 17.5405 31.6947 17.1859C31.284 16.8312 30.7754 16.6539 30.1687 16.6539C29.618 16.6539 29.1467 16.8312 28.7547 17.1859C28.3627 17.5312 28.1294 18.0025 28.0547 18.5999H32.3247Z" fill="#0D0C22"/>
<path d="M38.5433 21.7219L40.7273 15.4359H42.4213L39.4813 23.1499H37.5773L34.6513 15.4359H36.3593L38.5433 21.7219Z" fill="#0D0C22"/>
<path d="M44.4397 14.4139C44.1504 14.4139 43.9077 14.3159 43.7117 14.1199C43.5157 13.9239 43.4177 13.6812 43.4177 13.3919C43.4177 13.1025 43.5157 12.8599 43.7117 12.6639C43.9077 12.4679 44.1504 12.3699 44.4397 12.3699C44.7197 12.3699 44.9577 12.4679 45.1537 12.6639C45.3497 12.8599 45.4477 13.1025 45.4477 13.3919C45.4477 13.6812 45.3497 13.9239 45.1537 14.1199C44.9577 14.3159 44.7197 14.4139 44.4397 14.4139ZM45.2237 15.4359V23.1499H43.6277V15.4359H45.2237Z" fill="#0D0C22"/>
<path d="M54.3891 19.1039C54.3891 19.3932 54.3705 19.6545 54.3331 19.8879H48.4391C48.4858 20.5039 48.7145 20.9985 49.1251 21.3719C49.5358 21.7452 50.0398 21.9319 50.6371 21.9319C51.4958 21.9319 52.1025 21.5725 52.4571 20.8539H54.1791C53.9458 21.5632 53.5211 22.1465 52.9051 22.6039C52.2985 23.0519 51.5425 23.2759 50.6371 23.2759C49.8998 23.2759 49.2371 23.1125 48.6491 22.7859C48.0705 22.4499 47.6131 21.9832 47.2771 21.3859C46.9505 20.7792 46.7871 20.0792 46.7871 19.2859C46.7871 18.4925 46.9458 17.7972 47.2631 17.1999C47.5898 16.5932 48.0425 16.1265 48.6211 15.7999C49.2091 15.4732 49.8811 15.3099 50.6371 15.3099C51.3651 15.3099 52.0138 15.4685 52.5831 15.7859C53.1525 16.1032 53.5958 16.5512 53.9131 17.1299C54.2305 17.6992 54.3891 18.3572 54.3891 19.1039ZM52.7231 18.5999C52.7138 18.0119 52.5038 17.5405 52.0931 17.1859C51.6825 16.8312 51.1738 16.6539 50.5671 16.6539C50.0165 16.6539 49.5451 16.8312 49.1531 17.1859C48.7611 17.5312 48.5278 18.0025 48.4531 18.5999H52.7231Z" fill="#0D0C22"/>
<path d="M66.3198 15.4359L63.9258 23.1499H62.2458L60.6918 17.4519L59.1378 23.1499H57.4578L55.0498 15.4359H56.6738L58.2838 21.6379L59.9218 15.4359H61.5878L63.1558 21.6099L64.7518 15.4359H66.3198Z" fill="#0D0C22"/>
<path d="M70.3125 23.2759C69.7058 23.2759 69.1598 23.1685 68.6745 22.9539C68.1985 22.7299 67.8205 22.4312 67.5405 22.0579C67.2605 21.6752 67.1112 21.2505 67.0925 20.7839H68.7445C68.7725 21.1105 68.9265 21.3859 69.2065 21.6099C69.4958 21.8245 69.8552 21.9319 70.2845 21.9319C70.7325 21.9319 71.0778 21.8479 71.3205 21.6799C71.5725 21.5025 71.6985 21.2785 71.6985 21.0079C71.6985 20.7185 71.5585 20.5039 71.2785 20.3639C71.0078 20.2239 70.5738 20.0699 69.9765 19.9019C69.3978 19.7432 68.9265 19.5892 68.5625 19.4399C68.1985 19.2905 67.8812 19.0619 67.6105 18.7539C67.3492 18.4459 67.2185 18.0399 67.2185 17.5359C67.2185 17.1252 67.3398 16.7519 67.5825 16.4159C67.8252 16.0705 68.1705 15.7999 68.6185 15.6039C69.0758 15.4079 69.5985 15.3099 70.1865 15.3099C71.0638 15.3099 71.7685 15.5339 72.3005 15.9819C72.8418 16.4205 73.1312 17.0225 73.1685 17.7879H71.5725C71.5445 17.4425 71.4045 17.1672 71.1525 16.9619C70.9005 16.7565 70.5598 16.6539 70.1305 16.6539C69.7105 16.6539 69.3885 16.7332 69.1645 16.8919C68.9405 17.0505 68.8285 17.2605 68.8285 17.5219C68.8285 17.7272 68.9032 17.8999 69.0525 18.0399C69.2018 18.1799 69.3838 18.2919 69.5985 18.3759C69.8132 18.4505 70.1305 18.5485 70.5505 18.6699C71.1105 18.8192 71.5678 18.9732 71.9225 19.1319C72.2865 19.2812 72.5992 19.5052 72.8605 19.8039C73.1218 20.1025 73.2572 20.4992 73.2665 20.9939C73.2665 21.4325 73.1452 21.8245 72.9025 22.1699C72.6598 22.5152 72.3145 22.7859 71.8665 22.9819C71.4278 23.1779 70.9098 23.2759 70.3125 23.2759Z" fill="#0D0C22"/>
<path d="M19.1022 70.9499V65.4299L31.7422 47.3499H39.3822V65.0299H42.6622V70.9499H39.3822V76.1499H32.5422V70.9499H19.1022ZM33.0222 54.8699L26.3022 65.0299H33.0222V54.8699Z" fill="black"/>
<path d="M49.8925 76.4699C48.6925 76.4699 47.7058 76.1232 46.9325 75.4299C46.1858 74.7099 45.8125 73.8299 45.8125 72.7899C45.8125 71.7232 46.1858 70.8299 46.9325 70.1099C47.7058 69.3899 48.6925 69.0299 49.8925 69.0299C51.0658 69.0299 52.0258 69.3899 52.7725 70.1099C53.5458 70.8299 53.9325 71.7232 53.9325 72.7899C53.9325 73.8299 53.5458 74.7099 52.7725 75.4299C52.0258 76.1232 51.0658 76.4699 49.8925 76.4699Z" fill="black"/>
<path d="M75.9416 52.0699L65.9016 76.1499H58.9016L69.0616 52.8299H56.6216V46.9899H75.9416V52.0699Z" fill="black"/>
<path d="M27.025 95.1499L30.115 101.41L37.025 102.42L32.025 107.29L33.205 114.17L27.025 110.92L20.845 114.17L22.025 107.29L17.025 102.42L23.935 101.41L27.025 95.1499Z" fill="#E7B66B"/>
<path d="M59.025 95.1499L62.115 101.41L69.025 102.42L64.025 107.29L65.205 114.17L59.025 110.92L52.845 114.17L54.025 107.29L49.025 102.42L55.935 101.41L59.025 95.1499Z" fill="#E7B66B"/>
<path d="M91.025 95.1499L94.115 101.41L101.025 102.42L96.025 107.29L97.205 114.17L91.025 110.92L84.845 114.17L86.025 107.29L81.025 102.42L87.935 101.41L91.025 95.1499Z" fill="#E7B66B"/>
<path d="M123.025 95.1499L126.115 101.41L133.025 102.42L128.025 107.29L129.205 114.17L123.025 110.92L116.845 114.17L118.025 107.29L113.025 102.42L119.935 101.41L123.025 95.1499Z" fill="#E7B66B"/>
<path d="M155.025 95.1499L158.115 101.41L165.025 102.42L160.025 107.29L161.205 114.17L155.025 110.92L148.845 114.17L150.025 107.29L145.025 102.42L151.935 101.41L155.025 95.1499Z" fill="#E7B66B"/>
<path d="M157.025 101.201L165.025 102.471L160.025 107.341L161.205 114.221L157.025 111.701V101.201Z" fill="white"/>
<path d="M20.949 145.453C20.165 144.701 19.561 143.745 19.137 142.585C18.721 141.425 18.513 140.181 18.513 138.853C18.513 137.493 18.737 136.209 19.185 135.001C19.641 133.793 20.309 132.797 21.189 132.013H22.605V132.145C21.685 132.993 20.993 134.009 20.529 135.193C20.065 136.377 19.833 137.597 19.833 138.853C19.833 140.061 20.049 141.229 20.481 142.357C20.913 143.485 21.541 144.473 22.365 145.321V145.453H20.949Z" fill="#858585"/>
<path d="M29.2912 135.649H25.2712V138.037C25.4392 137.813 25.6872 137.625 26.0152 137.473C26.3512 137.321 26.7072 137.245 27.0832 137.245C27.7552 137.245 28.2992 137.389 28.7152 137.677C29.1392 137.965 29.4392 138.329 29.6152 138.769C29.7992 139.209 29.8912 139.673 29.8912 140.161C29.8912 140.753 29.7752 141.281 29.5432 141.745C29.3192 142.201 28.9792 142.561 28.5232 142.825C28.0752 143.089 27.5232 143.221 26.8672 143.221C25.9952 143.221 25.2952 143.005 24.7672 142.573C24.2392 142.141 23.9232 141.569 23.8192 140.857H25.1512C25.2392 141.233 25.4352 141.533 25.7392 141.757C26.0432 141.973 26.4232 142.081 26.8792 142.081C27.4472 142.081 27.8712 141.909 28.1512 141.565C28.4392 141.221 28.5832 140.765 28.5832 140.197C28.5832 139.621 28.4392 139.181 28.1512 138.877C27.8632 138.565 27.4392 138.409 26.8792 138.409C26.4872 138.409 26.1552 138.509 25.8832 138.709C25.6192 138.901 25.4272 139.165 25.3072 139.501H24.0112V134.449H29.2912V135.649Z" fill="#858585"/>
<path d="M36.8593 135.529L33.5233 143.221H32.1433L35.5153 135.673H31.0753V134.509H36.8593V135.529Z" fill="#858585"/>
<path d="M39.5062 138.649C38.6742 138.233 38.2582 137.577 38.2582 136.681C38.2582 136.249 38.3662 135.853 38.5822 135.493C38.7982 135.133 39.1222 134.849 39.5542 134.641C39.9862 134.425 40.5142 134.317 41.1382 134.317C41.7542 134.317 42.2782 134.425 42.7102 134.641C43.1502 134.849 43.4782 135.133 43.6942 135.493C43.9102 135.853 44.0182 136.249 44.0182 136.681C44.0182 137.129 43.9022 137.525 43.6702 137.869C43.4462 138.205 43.1462 138.465 42.7702 138.649C43.2262 138.817 43.5862 139.093 43.8502 139.477C44.1142 139.853 44.2462 140.297 44.2462 140.809C44.2462 141.329 44.1142 141.789 43.8502 142.189C43.5862 142.589 43.2182 142.897 42.7462 143.113C42.2742 143.329 41.7382 143.437 41.1382 143.437C40.5382 143.437 40.0022 143.329 39.5302 143.113C39.0662 142.897 38.7022 142.589 38.4382 142.189C38.1742 141.789 38.0422 141.329 38.0422 140.809C38.0422 140.289 38.1742 139.841 38.4382 139.465C38.7022 139.089 39.0582 138.817 39.5062 138.649ZM42.7102 136.849C42.7102 136.401 42.5702 136.057 42.2902 135.817C42.0102 135.577 41.6262 135.457 41.1382 135.457C40.6582 135.457 40.2782 135.577 39.9982 135.817C39.7182 136.057 39.5782 136.405 39.5782 136.861C39.5782 137.261 39.7222 137.589 40.0102 137.845C40.3062 138.093 40.6822 138.217 41.1382 138.217C41.5942 138.217 41.9702 138.089 42.2662 137.833C42.5622 137.577 42.7102 137.249 42.7102 136.849ZM41.1382 139.249C40.6102 139.249 40.1782 139.381 39.8422 139.645C39.5142 139.901 39.3502 140.273 39.3502 140.761C39.3502 141.217 39.5102 141.589 39.8302 141.877C40.1502 142.157 40.5862 142.297 41.1382 142.297C41.6822 142.297 42.1102 142.153 42.4222 141.865C42.7422 141.577 42.9022 141.209 42.9022 140.761C42.9022 140.281 42.7382 139.909 42.4102 139.645C42.0902 139.381 41.6662 139.249 41.1382 139.249Z" fill="#858585"/>
<path d="M53.3117 143.221L51.3917 139.885H50.3477V143.221H48.9797V134.881H51.8597C52.4997 134.881 53.0397 134.993 53.4797 135.217C53.9277 135.441 54.2597 135.741 54.4757 136.117C54.6997 136.493 54.8117 136.913 54.8117 137.377C54.8117 137.921 54.6517 138.417 54.3317 138.865C54.0197 139.305 53.5357 139.605 52.8797 139.765L54.9437 143.221H53.3117ZM50.3477 138.793H51.8597C52.3717 138.793 52.7557 138.665 53.0117 138.409C53.2757 138.153 53.4077 137.809 53.4077 137.377C53.4077 136.945 53.2797 136.609 53.0237 136.369C52.7677 136.121 52.3797 135.997 51.8597 135.997H50.3477V138.793Z" fill="#858585"/>
<path d="M62.6217 139.753C62.6217 140.001 62.6057 140.225 62.5737 140.425H57.5217C57.5617 140.953 57.7577 141.377 58.1097 141.697C58.4617 142.017 58.8937 142.177 59.4057 142.177C60.1417 142.177 60.6617 141.869 60.9657 141.253H62.4417C62.2417 141.861 61.8777 142.361 61.3497 142.753C60.8297 143.137 60.1817 143.329 59.4057 143.329C58.7737 143.329 58.2057 143.189 57.7017 142.909C57.2057 142.621 56.8137 142.221 56.5257 141.709C56.2457 141.189 56.1057 140.589 56.1057 139.909C56.1057 139.229 56.2417 138.633 56.5137 138.121C56.7937 137.601 57.1817 137.201 57.6777 136.921C58.1817 136.641 58.7577 136.501 59.4057 136.501C60.0297 136.501 60.5857 136.637 61.0737 136.909C61.5617 137.181 61.9417 137.565 62.2137 138.061C62.4857 138.549 62.6217 139.113 62.6217 139.753ZM61.1937 139.321C61.1857 138.817 61.0057 138.413 60.6537 138.109C60.3017 137.805 59.8657 137.653 59.3457 137.653C58.8737 137.653 58.4697 137.805 58.1337 138.109C57.7977 138.405 57.5977 138.809 57.5337 139.321H61.1937Z" fill="#858585"/>
<path d="M66.524 141.997L68.396 136.609H69.848L67.328 143.221H65.696L63.188 136.609H64.652L66.524 141.997Z" fill="#858585"/>
<path d="M71.578 135.733C71.33 135.733 71.122 135.649 70.954 135.481C70.786 135.313 70.702 135.105 70.702 134.857C70.702 134.609 70.786 134.401 70.954 134.233C71.122 134.065 71.33 133.981 71.578 133.981C71.818 133.981 72.022 134.065 72.19 134.233C72.358 134.401 72.442 134.609 72.442 134.857C72.442 135.105 72.358 135.313 72.19 135.481C72.022 135.649 71.818 135.733 71.578 135.733ZM72.25 136.609V143.221H70.882V136.609H72.25Z" fill="#858585"/>
<path d="M80.1061 139.753C80.1061 140.001 80.0901 140.225 80.0581 140.425H75.0061C75.0461 140.953 75.2421 141.377 75.5941 141.697C75.9461 142.017 76.3781 142.177 76.8901 142.177C77.6261 142.177 78.1461 141.869 78.4501 141.253H79.9261C79.7261 141.861 79.3621 142.361 78.8341 142.753C78.3141 143.137 77.6661 143.329 76.8901 143.329C76.2581 143.329 75.6901 143.189 75.1861 142.909C74.6901 142.621 74.2981 142.221 74.0101 141.709C73.7301 141.189 73.5901 140.589 73.5901 139.909C73.5901 139.229 73.7261 138.633 73.9981 138.121C74.2781 137.601 74.6661 137.201 75.1621 136.921C75.6661 136.641 76.2421 136.501 76.8901 136.501C77.5141 136.501 78.0701 136.637 78.5581 136.909C79.0461 137.181 79.4261 137.565 79.6981 138.061C79.9701 138.549 80.1061 139.113 80.1061 139.753ZM78.6781 139.321C78.6701 138.817 78.4901 138.413 78.1381 138.109C77.7861 137.805 77.3501 137.653 76.8301 137.653C76.3581 137.653 75.9541 137.805 75.6181 138.109C75.2821 138.405 75.0821 138.809 75.0181 139.321H78.6781Z" fill="#858585"/>
<path d="M90.3323 136.609L88.2803 143.221H86.8403L85.5083 138.337L84.1763 143.221H82.7363L80.6723 136.609H82.0643L83.4443 141.925L84.8483 136.609H86.2763L87.6203 141.901L88.9883 136.609H90.3323Z" fill="#858585"/>
<path d="M93.7547 143.329C93.2347 143.329 92.7667 143.237 92.3507 143.053C91.9427 142.861 91.6187 142.605 91.3787 142.285C91.1387 141.957 91.0107 141.593 90.9947 141.193H92.4107C92.4347 141.473 92.5667 141.709 92.8067 141.901C93.0547 142.085 93.3627 142.177 93.7307 142.177C94.1147 142.177 94.4107 142.105 94.6187 141.961C94.8347 141.809 94.9427 141.617 94.9427 141.385C94.9427 141.137 94.8227 140.953 94.5827 140.833C94.3507 140.713 93.9787 140.581 93.4667 140.437C92.9707 140.301 92.5667 140.169 92.2547 140.041C91.9427 139.913 91.6707 139.717 91.4387 139.453C91.2147 139.189 91.1027 138.841 91.1027 138.409C91.1027 138.057 91.2067 137.737 91.4147 137.449C91.6227 137.153 91.9187 136.921 92.3027 136.753C92.6947 136.585 93.1427 136.501 93.6467 136.501C94.3987 136.501 95.0027 136.693 95.4587 137.077C95.9227 137.453 96.1707 137.969 96.2027 138.625H94.8347C94.8107 138.329 94.6907 138.093 94.4747 137.917C94.2587 137.741 93.9667 137.653 93.5987 137.653C93.2387 137.653 92.9627 137.721 92.7707 137.857C92.5787 137.993 92.4827 138.173 92.4827 138.397C92.4827 138.573 92.5467 138.721 92.6747 138.841C92.8027 138.961 92.9587 139.057 93.1427 139.129C93.3267 139.193 93.5987 139.277 93.9587 139.381C94.4387 139.509 94.8307 139.641 95.1347 139.777C95.4467 139.905 95.7147 140.097 95.9387 140.353C96.1627 140.609 96.2787 140.949 96.2867 141.373C96.2867 141.749 96.1827 142.085 95.9747 142.381C95.7667 142.677 95.4707 142.909 95.0867 143.077C94.7107 143.245 94.2667 143.329 93.7547 143.329Z" fill="#858585"/>
<path d="M97.4288 145.453V145.321C98.2528 144.473 98.8808 143.485 99.3128 142.357C99.7448 141.229 99.9608 140.061 99.9608 138.853C99.9608 137.597 99.7288 136.377 99.2648 135.193C98.8008 134.009 98.1088 132.993 97.1888 132.145V132.013H98.6048C99.4848 132.797 100.149 133.793 100.597 135.001C101.053 136.209 101.281 137.493 101.281 138.853C101.281 140.181 101.069 141.425 100.645 142.585C100.229 143.745 99.6288 144.701 98.8448 145.453H97.4288Z" fill="#858585"/>
<path d="M50.9361 156.439C50.9361 154.782 52.2793 153.439 53.9361 153.439H272.936C274.593 153.439 275.936 154.782 275.936 156.439C275.936 158.096 274.593 159.439 272.936 159.439H53.9361C52.2793 159.439 50.9361 158.096 50.9361 156.439Z" fill="#F2F6FB"/>
<path d="M50.9361 178.439C50.9361 176.782 52.2793 175.439 53.9361 175.439H289.936C291.593 175.439 292.936 176.782 292.936 178.439C292.936 180.096 291.593 181.439 289.936 181.439H53.9361C52.2793 181.439 50.9361 180.096 50.9361 178.439Z" fill="#F2F6FB"/>
<path d="M50.9361 200.439C50.9361 198.782 52.2793 197.439 53.9361 197.439H289.936C291.593 197.439 292.936 198.782 292.936 200.439C292.936 202.096 291.593 203.439 289.936 203.439H53.9361C52.2793 203.439 50.9361 202.096 50.9361 200.439Z" fill="#F2F6FB"/>
<path d="M50.9361 222.439C50.9361 220.782 52.2793 219.439 53.9361 219.439H289.936C291.593 219.439 292.936 220.782 292.936 222.439C292.936 224.096 291.593 225.439 289.936 225.439H53.9361C52.2793 225.439 50.9361 224.096 50.9361 222.439Z" fill="#F2F6FB"/>
<path d="M50.9361 244.439C50.9361 242.782 52.2793 241.439 53.9361 241.439H289.936C291.593 241.439 292.936 242.782 292.936 244.439C292.936 246.096 291.593 247.439 289.936 247.439H53.9361C52.2793 247.439 50.9361 246.096 50.9361 244.439Z" fill="#F2F6FB"/>
<path d="M60.6833 159.983C60.6833 158.46 61.9183 157.225 63.4417 157.225H280.431C281.954 157.225 283.189 158.46 283.189 159.983C283.189 161.507 281.954 162.742 280.431 162.742H63.4417C61.9183 162.742 60.6833 161.507 60.6833 159.983Z" fill="#E7B66B"/>
<path d="M60.6833 180.211C60.6833 178.688 61.9183 177.453 63.4417 177.453H149.869C151.393 177.453 152.628 178.688 152.628 180.211C152.628 181.734 151.393 182.969 149.869 182.969H63.4417C61.9183 182.969 60.6833 181.734 60.6833 180.211Z" fill="#E7B66B"/>
<path d="M60.6833 200.439C60.6833 198.915 61.9183 197.68 63.4417 197.68H70.7972C72.3206 197.68 73.5556 198.915 73.5556 200.439C73.5556 201.962 72.3206 203.197 70.7972 203.197H63.4417C61.9183 203.197 60.6833 201.962 60.6833 200.439Z" fill="#E7B66B"/>
<path d="M26.8764 153.169H23.5264V155.159C23.6664 154.972 23.8731 154.816 24.1464 154.689C24.4264 154.562 24.7231 154.499 25.0364 154.499C25.5964 154.499 26.0497 154.619 26.3964 154.859C26.7497 155.099 26.9997 155.402 27.1464 155.769C27.2997 156.136 27.3764 156.522 27.3764 156.929C27.3764 157.422 27.2797 157.862 27.0864 158.249C26.8997 158.629 26.6164 158.929 26.2364 159.149C25.8631 159.369 25.4031 159.479 24.8564 159.479C24.1297 159.479 23.5464 159.299 23.1064 158.939C22.6664 158.579 22.4031 158.102 22.3164 157.509H23.4264C23.4997 157.822 23.6631 158.072 23.9164 158.259C24.1697 158.439 24.4864 158.529 24.8664 158.529C25.3397 158.529 25.6931 158.386 25.9264 158.099C26.1664 157.812 26.2864 157.432 26.2864 156.959C26.2864 156.479 26.1664 156.112 25.9264 155.859C25.6864 155.599 25.3331 155.469 24.8664 155.469C24.5397 155.469 24.2631 155.552 24.0364 155.719C23.8164 155.879 23.6564 156.099 23.5564 156.379H22.4764V152.169H26.8764V153.169Z" fill="black"/>
<path d="M33.3108 159.569C32.8774 159.569 32.4874 159.492 32.1408 159.339C31.8008 159.179 31.5308 158.966 31.3308 158.699C31.1308 158.426 31.0241 158.122 31.0108 157.789H32.1908C32.2108 158.022 32.3208 158.219 32.5208 158.379C32.7274 158.532 32.9841 158.609 33.2908 158.609C33.6108 158.609 33.8574 158.549 34.0308 158.429C34.2108 158.302 34.3008 158.142 34.3008 157.949C34.3008 157.742 34.2008 157.589 34.0008 157.489C33.8074 157.389 33.4974 157.279 33.0708 157.159C32.6574 157.046 32.3208 156.936 32.0608 156.829C31.8008 156.722 31.5741 156.559 31.3808 156.339C31.1941 156.119 31.1008 155.829 31.1008 155.469C31.1008 155.176 31.1874 154.909 31.3608 154.669C31.5341 154.422 31.7808 154.229 32.1008 154.089C32.4274 153.949 32.8008 153.879 33.2208 153.879C33.8474 153.879 34.3508 154.039 34.7308 154.359C35.1174 154.672 35.3241 155.102 35.3508 155.649H34.2108C34.1908 155.402 34.0908 155.206 33.9108 155.059C33.7308 154.912 33.4874 154.839 33.1808 154.839C32.8808 154.839 32.6508 154.896 32.4908 155.009C32.3308 155.122 32.2508 155.272 32.2508 155.459C32.2508 155.606 32.3041 155.729 32.4108 155.829C32.5174 155.929 32.6474 156.009 32.8008 156.069C32.9541 156.122 33.1808 156.192 33.4808 156.279C33.8808 156.386 34.2074 156.496 34.4608 156.609C34.7208 156.716 34.9441 156.876 35.1308 157.089C35.3174 157.302 35.4141 157.586 35.4208 157.939C35.4208 158.252 35.3341 158.532 35.1608 158.779C34.9874 159.026 34.7408 159.219 34.4208 159.359C34.1074 159.499 33.7374 159.569 33.3108 159.569Z" fill="black"/>
<path d="M37.9826 154.899V157.949C37.9826 158.156 38.0292 158.306 38.1226 158.399C38.2226 158.486 38.3892 158.529 38.6226 158.529H39.3226V159.479H38.4226C37.9092 159.479 37.5159 159.359 37.2426 159.119C36.9692 158.879 36.8326 158.489 36.8326 157.949V154.899H36.1826V153.969H36.8326V152.599H37.9826V153.969H39.3226V154.899H37.9826Z" fill="black"/>
<path d="M39.9933 156.699C39.9933 156.146 40.1066 155.656 40.3333 155.229C40.5666 154.802 40.8799 154.472 41.2733 154.239C41.6733 153.999 42.1133 153.879 42.5933 153.879C43.0266 153.879 43.4033 153.966 43.7233 154.139C44.0499 154.306 44.3099 154.516 44.5033 154.769V153.969H45.6533V159.479H44.5033V158.659C44.3099 158.919 44.0466 159.136 43.7133 159.309C43.3799 159.482 42.9999 159.569 42.5733 159.569C42.0999 159.569 41.6666 159.449 41.2733 159.209C40.8799 158.962 40.5666 158.622 40.3333 158.189C40.1066 157.749 39.9933 157.252 39.9933 156.699ZM44.5033 156.719C44.5033 156.339 44.4233 156.009 44.2633 155.729C44.1099 155.449 43.9066 155.236 43.6533 155.089C43.3999 154.942 43.1266 154.869 42.8333 154.869C42.5399 154.869 42.2666 154.942 42.0133 155.089C41.7599 155.229 41.5533 155.439 41.3933 155.719C41.2399 155.992 41.1633 156.319 41.1633 156.699C41.1633 157.079 41.2399 157.412 41.3933 157.699C41.5533 157.986 41.7599 158.206 42.0133 158.359C42.2733 158.506 42.5466 158.579 42.8333 158.579C43.1266 158.579 43.3999 158.506 43.6533 158.359C43.9066 158.212 44.1099 157.999 44.2633 157.719C44.4233 157.432 44.5033 157.099 44.5033 156.719Z" fill="black"/>
<path d="M48.2906 154.769C48.4573 154.489 48.6773 154.272 48.9506 154.119C49.2306 153.959 49.5606 153.879 49.9406 153.879V155.059H49.6506C49.2039 155.059 48.8639 155.172 48.6306 155.399C48.4039 155.626 48.2906 156.019 48.2906 156.579V159.479H47.1506V153.969H48.2906V154.769Z" fill="black"/>
<path d="M52.9885 159.569C52.5552 159.569 52.1652 159.492 51.8185 159.339C51.4785 159.179 51.2085 158.966 51.0085 158.699C50.8085 158.426 50.7018 158.122 50.6885 157.789H51.8685C51.8885 158.022 51.9985 158.219 52.1985 158.379C52.4052 158.532 52.6618 158.609 52.9685 158.609C53.2885 158.609 53.5352 158.549 53.7085 158.429C53.8885 158.302 53.9785 158.142 53.9785 157.949C53.9785 157.742 53.8785 157.589 53.6785 157.489C53.4852 157.389 53.1752 157.279 52.7485 157.159C52.3352 157.046 51.9985 156.936 51.7385 156.829C51.4785 156.722 51.2518 156.559 51.0585 156.339C50.8718 156.119 50.7785 155.829 50.7785 155.469C50.7785 155.176 50.8652 154.909 51.0385 154.669C51.2118 154.422 51.4585 154.229 51.7785 154.089C52.1052 153.949 52.4785 153.879 52.8985 153.879C53.5252 153.879 54.0285 154.039 54.4085 154.359C54.7952 154.672 55.0018 155.102 55.0285 155.649H53.8885C53.8685 155.402 53.7685 155.206 53.5885 155.059C53.4085 154.912 53.1652 154.839 52.8585 154.839C52.5585 154.839 52.3285 154.896 52.1685 155.009C52.0085 155.122 51.9285 155.272 51.9285 155.459C51.9285 155.606 51.9818 155.729 52.0885 155.829C52.1952 155.929 52.3252 156.009 52.4785 156.069C52.6318 156.122 52.8585 156.192 53.1585 156.279C53.5585 156.386 53.8852 156.496 54.1385 156.609C54.3985 156.716 54.6218 156.876 54.8085 157.089C54.9952 157.302 55.0918 157.586 55.0985 157.939C55.0985 158.252 55.0118 158.532 54.8385 158.779C54.6652 159.026 54.4185 159.219 54.0985 159.359C53.7852 159.499 53.4152 159.569 52.9885 159.569Z" fill="black"/>
<path d="M22.0364 179.959V179.099L25.3964 174.279H26.7764V178.969H27.7064V179.959H26.7764V181.479H25.6564V179.959H22.0364ZM25.7064 175.439L23.3464 178.969H25.7064V175.439Z" fill="black"/>
<path d="M33.3987 181.569C32.9653 181.569 32.5753 181.492 32.2287 181.339C31.8887 181.179 31.6187 180.966 31.4187 180.699C31.2187 180.426 31.112 180.122 31.0987 179.789H32.2787C32.2987 180.022 32.4087 180.219 32.6087 180.379C32.8153 180.532 33.072 180.609 33.3787 180.609C33.6987 180.609 33.9453 180.549 34.1187 180.429C34.2987 180.302 34.3887 180.142 34.3887 179.949C34.3887 179.742 34.2887 179.589 34.0887 179.489C33.8953 179.389 33.5853 179.279 33.1587 179.159C32.7453 179.046 32.4087 178.936 32.1487 178.829C31.8887 178.722 31.662 178.559 31.4687 178.339C31.282 178.119 31.1887 177.829 31.1887 177.469C31.1887 177.176 31.2753 176.909 31.4487 176.669C31.622 176.422 31.8687 176.229 32.1887 176.089C32.5153 175.949 32.8887 175.879 33.3087 175.879C33.9353 175.879 34.4387 176.039 34.8187 176.359C35.2053 176.672 35.412 177.102 35.4387 177.649H34.2987C34.2787 177.402 34.1787 177.206 33.9987 177.059C33.8187 176.912 33.5753 176.839 33.2687 176.839C32.9687 176.839 32.7387 176.896 32.5787 177.009C32.4187 177.122 32.3387 177.272 32.3387 177.459C32.3387 177.606 32.392 177.729 32.4987 177.829C32.6053 177.929 32.7353 178.009 32.8887 178.069C33.042 178.122 33.2687 178.192 33.5687 178.279C33.9687 178.386 34.2953 178.496 34.5487 178.609C34.8087 178.716 35.032 178.876 35.2187 179.089C35.4053 179.302 35.502 179.586 35.5087 179.939C35.5087 180.252 35.422 180.532 35.2487 180.779C35.0753 181.026 34.8287 181.219 34.5087 181.359C34.1953 181.499 33.8253 181.569 33.3987 181.569Z" fill="black"/>
<path d="M38.0705 176.899V179.949C38.0705 180.156 38.1171 180.306 38.2105 180.399C38.3105 180.486 38.4771 180.529 38.7105 180.529H39.4105V181.479H38.5105C37.9971 181.479 37.6038 181.359 37.3305 181.119C37.0571 180.879 36.9205 180.489 36.9205 179.949V176.899H36.2705V175.969H36.9205V174.599H38.0705V175.969H39.4105V176.899H38.0705Z" fill="black"/>
<path d="M40.0812 178.699C40.0812 178.146 40.1945 177.656 40.4212 177.229C40.6545 176.802 40.9678 176.472 41.3612 176.239C41.7612 175.999 42.2012 175.879 42.6812 175.879C43.1145 175.879 43.4912 175.966 43.8112 176.139C44.1378 176.306 44.3978 176.516 44.5912 176.769V175.969H45.7412V181.479H44.5912V180.659C44.3978 180.919 44.1345 181.136 43.8012 181.309C43.4678 181.482 43.0878 181.569 42.6612 181.569C42.1878 181.569 41.7545 181.449 41.3612 181.209C40.9678 180.962 40.6545 180.622 40.4212 180.189C40.1945 179.749 40.0812 179.252 40.0812 178.699ZM44.5912 178.719C44.5912 178.339 44.5112 178.009 44.3512 177.729C44.1978 177.449 43.9945 177.236 43.7412 177.089C43.4878 176.942 43.2145 176.869 42.9212 176.869C42.6278 176.869 42.3545 176.942 42.1012 177.089C41.8478 177.229 41.6412 177.439 41.4812 177.719C41.3278 177.992 41.2512 178.319 41.2512 178.699C41.2512 179.079 41.3278 179.412 41.4812 179.699C41.6412 179.986 41.8478 180.206 42.1012 180.359C42.3612 180.506 42.6345 180.579 42.9212 180.579C43.2145 180.579 43.4878 180.506 43.7412 180.359C43.9945 180.212 44.1978 179.999 44.3512 179.719C44.5112 179.432 44.5912 179.099 44.5912 178.719Z" fill="black"/>
<path d="M48.3785 176.769C48.5452 176.489 48.7652 176.272 49.0385 176.119C49.3185 175.959 49.6485 175.879 50.0285 175.879V177.059H49.7385C49.2918 177.059 48.9518 177.172 48.7185 177.399C48.4918 177.626 48.3785 178.019 48.3785 178.579V181.479H47.2385V175.969H48.3785V176.769Z" fill="black"/>
<path d="M53.0764 181.569C52.6431 181.569 52.2531 181.492 51.9064 181.339C51.5664 181.179 51.2964 180.966 51.0964 180.699C50.8964 180.426 50.7897 180.122 50.7764 179.789H51.9564C51.9764 180.022 52.0864 180.219 52.2864 180.379C52.4931 180.532 52.7497 180.609 53.0564 180.609C53.3764 180.609 53.6231 180.549 53.7964 180.429C53.9764 180.302 54.0664 180.142 54.0664 179.949C54.0664 179.742 53.9664 179.589 53.7664 179.489C53.5731 179.389 53.2631 179.279 52.8364 179.159C52.4231 179.046 52.0864 178.936 51.8264 178.829C51.5664 178.722 51.3397 178.559 51.1464 178.339C50.9597 178.119 50.8664 177.829 50.8664 177.469C50.8664 177.176 50.9531 176.909 51.1264 176.669C51.2997 176.422 51.5464 176.229 51.8664 176.089C52.1931 175.949 52.5664 175.879 52.9864 175.879C53.6131 175.879 54.1164 176.039 54.4964 176.359C54.8831 176.672 55.0897 177.102 55.1164 177.649H53.9764C53.9564 177.402 53.8564 177.206 53.6764 177.059C53.4964 176.912 53.2531 176.839 52.9464 176.839C52.6464 176.839 52.4164 176.896 52.2564 177.009C52.0964 177.122 52.0164 177.272 52.0164 177.459C52.0164 177.606 52.0697 177.729 52.1764 177.829C52.2831 177.929 52.4131 178.009 52.5664 178.069C52.7197 178.122 52.9464 178.192 53.2464 178.279C53.6464 178.386 53.9731 178.496 54.2264 178.609C54.4864 178.716 54.7097 178.876 54.8964 179.089C55.0831 179.302 55.1797 179.586 55.1864 179.939C55.1864 180.252 55.0997 180.532 54.9264 180.779C54.7531 181.026 54.5064 181.219 54.1864 181.359C53.8731 181.499 53.5031 181.569 53.0764 181.569Z" fill="black"/>
<path d="M23.1564 197.989C23.1964 197.369 23.4331 196.886 23.8664 196.539C24.3064 196.192 24.8664 196.019 25.5464 196.019C26.0131 196.019 26.4164 196.102 26.7564 196.269C27.0964 196.436 27.3531 196.662 27.5264 196.949C27.6997 197.236 27.7864 197.559 27.7864 197.919C27.7864 198.332 27.6764 198.686 27.4564 198.979C27.2364 199.272 26.9731 199.469 26.6664 199.569V199.609C27.0597 199.729 27.3664 199.949 27.5864 200.269C27.8064 200.582 27.9164 200.986 27.9164 201.479C27.9164 201.872 27.8264 202.222 27.6464 202.529C27.4664 202.836 27.1997 203.079 26.8464 203.259C26.4931 203.432 26.0697 203.519 25.5764 203.519C24.8564 203.519 24.2631 203.336 23.7964 202.969C23.3364 202.596 23.0897 202.062 23.0564 201.369H24.1564C24.1831 201.722 24.3197 202.012 24.5664 202.239C24.8131 202.459 25.1464 202.569 25.5664 202.569C25.9731 202.569 26.2864 202.459 26.5064 202.239C26.7264 202.012 26.8364 201.722 26.8364 201.369C26.8364 200.902 26.6864 200.572 26.3864 200.379C26.0931 200.179 25.6397 200.079 25.0264 200.079H24.7664V199.139H25.0364C25.5764 199.132 25.9864 199.042 26.2664 198.869C26.5531 198.696 26.6964 198.422 26.6964 198.049C26.6964 197.729 26.5931 197.476 26.3864 197.289C26.1797 197.096 25.8864 196.999 25.5064 196.999C25.1331 196.999 24.8431 197.096 24.6364 197.289C24.4297 197.476 24.3064 197.709 24.2664 197.989H23.1564Z" fill="black"/>
<path d="M33.8615 203.569C33.4282 203.569 33.0382 203.492 32.6915 203.339C32.3515 203.179 32.0815 202.966 31.8815 202.699C31.6815 202.426 31.5749 202.122 31.5615 201.789H32.7415C32.7615 202.022 32.8715 202.219 33.0715 202.379C33.2782 202.532 33.5349 202.609 33.8415 202.609C34.1615 202.609 34.4082 202.549 34.5815 202.429C34.7615 202.302 34.8515 202.142 34.8515 201.949C34.8515 201.742 34.7515 201.589 34.5515 201.489C34.3582 201.389 34.0482 201.279 33.6215 201.159C33.2082 201.046 32.8715 200.936 32.6115 200.829C32.3515 200.722 32.1249 200.559 31.9315 200.339C31.7449 200.119 31.6515 199.829 31.6515 199.469C31.6515 199.176 31.7382 198.909 31.9115 198.669C32.0849 198.422 32.3315 198.229 32.6515 198.089C32.9782 197.949 33.3515 197.879 33.7715 197.879C34.3982 197.879 34.9015 198.039 35.2815 198.359C35.6682 198.672 35.8749 199.102 35.9015 199.649H34.7615C34.7415 199.402 34.6415 199.206 34.4615 199.059C34.2815 198.912 34.0382 198.839 33.7315 198.839C33.4315 198.839 33.2015 198.896 33.0415 199.009C32.8815 199.122 32.8015 199.272 32.8015 199.459C32.8015 199.606 32.8549 199.729 32.9615 199.829C33.0682 199.929 33.1982 200.009 33.3515 200.069C33.5049 200.122 33.7315 200.192 34.0315 200.279C34.4315 200.386 34.7582 200.496 35.0115 200.609C35.2715 200.716 35.4949 200.876 35.6815 201.089C35.8682 201.302 35.9649 201.586 35.9715 201.939C35.9715 202.252 35.8849 202.532 35.7115 202.779C35.5382 203.026 35.2915 203.219 34.9715 203.359C34.6582 203.499 34.2882 203.569 33.8615 203.569Z" fill="black"/>
<path d="M38.5333 198.899V201.949C38.5333 202.156 38.58 202.306 38.6733 202.399C38.7733 202.486 38.94 202.529 39.1733 202.529H39.8733V203.479H38.9733C38.46 203.479 38.0667 203.359 37.7933 203.119C37.52 202.879 37.3833 202.489 37.3833 201.949V198.899H36.7333V197.969H37.3833V196.599H38.5333V197.969H39.8733V198.899H38.5333Z" fill="black"/>
<path d="M40.544 200.699C40.544 200.146 40.6574 199.656 40.884 199.229C41.1174 198.802 41.4307 198.472 41.824 198.239C42.224 197.999 42.664 197.879 43.144 197.879C43.5774 197.879 43.954 197.966 44.274 198.139C44.6007 198.306 44.8607 198.516 45.054 198.769V197.969H46.204V203.479H45.054V202.659C44.8607 202.919 44.5974 203.136 44.264 203.309C43.9307 203.482 43.5507 203.569 43.124 203.569C42.6507 203.569 42.2174 203.449 41.824 203.209C41.4307 202.962 41.1174 202.622 40.884 202.189C40.6574 201.749 40.544 201.252 40.544 200.699ZM45.054 200.719C45.054 200.339 44.974 200.009 44.814 199.729C44.6607 199.449 44.4574 199.236 44.204 199.089C43.9507 198.942 43.6774 198.869 43.384 198.869C43.0907 198.869 42.8174 198.942 42.564 199.089C42.3107 199.229 42.104 199.439 41.944 199.719C41.7907 199.992 41.714 200.319 41.714 200.699C41.714 201.079 41.7907 201.412 41.944 201.699C42.104 201.986 42.3107 202.206 42.564 202.359C42.824 202.506 43.0974 202.579 43.384 202.579C43.6774 202.579 43.9507 202.506 44.204 202.359C44.4574 202.212 44.6607 201.999 44.814 201.719C44.974 201.432 45.054 201.099 45.054 200.719Z" fill="black"/>
<path d="M48.8414 198.769C49.0081 198.489 49.2281 198.272 49.5014 198.119C49.7814 197.959 50.1114 197.879 50.4914 197.879V199.059H50.2014C49.7547 199.059 49.4147 199.172 49.1814 199.399C48.9547 199.626 48.8414 200.019 48.8414 200.579V203.479H47.7014V197.969H48.8414V198.769Z" fill="black"/>
<path d="M53.5393 203.569C53.1059 203.569 52.716 203.492 52.3693 203.339C52.0293 203.179 51.7593 202.966 51.5593 202.699C51.3593 202.426 51.2526 202.122 51.2393 201.789H52.4193C52.4393 202.022 52.5493 202.219 52.7493 202.379C52.9559 202.532 53.2126 202.609 53.5193 202.609C53.8393 202.609 54.0859 202.549 54.2593 202.429C54.4393 202.302 54.5293 202.142 54.5293 201.949C54.5293 201.742 54.4293 201.589 54.2293 201.489C54.0359 201.389 53.7259 201.279 53.2993 201.159C52.8859 201.046 52.5493 200.936 52.2893 200.829C52.0293 200.722 51.8026 200.559 51.6093 200.339C51.4226 200.119 51.3293 199.829 51.3293 199.469C51.3293 199.176 51.4159 198.909 51.5893 198.669C51.7626 198.422 52.0093 198.229 52.3293 198.089C52.6559 197.949 53.0293 197.879 53.4493 197.879C54.0759 197.879 54.5793 198.039 54.9593 198.359C55.3459 198.672 55.5526 199.102 55.5793 199.649H54.4393C54.4193 199.402 54.3193 199.206 54.1393 199.059C53.9593 198.912 53.7159 198.839 53.4093 198.839C53.1093 198.839 52.8793 198.896 52.7193 199.009C52.5593 199.122 52.4793 199.272 52.4793 199.459C52.4793 199.606 52.5326 199.729 52.6393 199.829C52.7459 199.929 52.8759 200.009 53.0293 200.069C53.1826 200.122 53.4093 200.192 53.7093 200.279C54.1093 200.386 54.4359 200.496 54.6893 200.609C54.9493 200.716 55.1726 200.876 55.3593 201.089C55.5459 201.302 55.6426 201.586 55.6493 201.939C55.6493 202.252 55.5626 202.532 55.3893 202.779C55.2159 203.026 54.9693 203.219 54.6493 203.359C54.3359 203.499 53.9659 203.569 53.5393 203.569Z" fill="black"/>
<path d="M23.8064 223.929C24.4464 223.376 24.9497 222.922 25.3164 222.569C25.6897 222.209 25.9997 221.836 26.2464 221.449C26.4931 221.062 26.6164 220.676 26.6164 220.289C26.6164 219.889 26.5197 219.576 26.3264 219.349C26.1397 219.122 25.8431 219.009 25.4364 219.009C25.0431 219.009 24.7364 219.136 24.5164 219.389C24.3031 219.636 24.1897 219.969 24.1764 220.389H23.0764C23.0964 219.629 23.3231 219.049 23.7564 218.649C24.1964 218.242 24.7531 218.039 25.4264 218.039C26.1531 218.039 26.7197 218.239 27.1264 218.639C27.5397 219.039 27.7464 219.572 27.7464 220.239C27.7464 220.719 27.6231 221.182 27.3764 221.629C27.1364 222.069 26.8464 222.466 26.5064 222.819C26.1731 223.166 25.7464 223.569 25.2264 224.029L24.7764 224.429H27.9464V225.379H23.0864V224.549L23.8064 223.929Z" fill="black"/>
<path d="M33.6955 225.569C33.2622 225.569 32.8722 225.492 32.5255 225.339C32.1855 225.179 31.9155 224.966 31.7155 224.699C31.5155 224.426 31.4089 224.122 31.3955 223.789H32.5755C32.5955 224.022 32.7055 224.219 32.9055 224.379C33.1122 224.532 33.3689 224.609 33.6755 224.609C33.9955 224.609 34.2422 224.549 34.4155 224.429C34.5955 224.302 34.6855 224.142 34.6855 223.949C34.6855 223.742 34.5855 223.589 34.3855 223.489C34.1922 223.389 33.8822 223.279 33.4555 223.159C33.0422 223.046 32.7055 222.936 32.4455 222.829C32.1855 222.722 31.9589 222.559 31.7655 222.339C31.5789 222.119 31.4855 221.829 31.4855 221.469C31.4855 221.176 31.5722 220.909 31.7455 220.669C31.9189 220.422 32.1655 220.229 32.4855 220.089C32.8122 219.949 33.1855 219.879 33.6055 219.879C34.2322 219.879 34.7355 220.039 35.1155 220.359C35.5022 220.672 35.7089 221.102 35.7355 221.649H34.5955C34.5755 221.402 34.4755 221.206 34.2955 221.059C34.1155 220.912 33.8722 220.839 33.5655 220.839C33.2655 220.839 33.0355 220.896 32.8755 221.009C32.7155 221.122 32.6355 221.272 32.6355 221.459C32.6355 221.606 32.6889 221.729 32.7955 221.829C32.9022 221.929 33.0322 222.009 33.1855 222.069C33.3389 222.122 33.5655 222.192 33.8655 222.279C34.2655 222.386 34.5922 222.496 34.8455 222.609C35.1055 222.716 35.3289 222.876 35.5155 223.089C35.7022 223.302 35.7989 223.586 35.8055 223.939C35.8055 224.252 35.7189 224.532 35.5455 224.779C35.3722 225.026 35.1255 225.219 34.8055 225.359C34.4922 225.499 34.1222 225.569 33.6955 225.569Z" fill="black"/>
<path d="M38.3673 220.899V223.949C38.3673 224.156 38.414 224.306 38.5073 224.399C38.6073 224.486 38.774 224.529 39.0073 224.529H39.7073V225.479H38.8073C38.294 225.479 37.9007 225.359 37.6273 225.119C37.354 224.879 37.2173 224.489 37.2173 223.949V220.899H36.5673V219.969H37.2173V218.599H38.3673V219.969H39.7073V220.899H38.3673Z" fill="black"/>
<path d="M40.378 222.699C40.378 222.146 40.4914 221.656 40.718 221.229C40.9514 220.802 41.2647 220.472 41.658 220.239C42.058 219.999 42.498 219.879 42.978 219.879C43.4114 219.879 43.788 219.966 44.108 220.139C44.4347 220.306 44.6947 220.516 44.888 220.769V219.969H46.038V225.479H44.888V224.659C44.6947 224.919 44.4314 225.136 44.098 225.309C43.7647 225.482 43.3847 225.569 42.958 225.569C42.4847 225.569 42.0514 225.449 41.658 225.209C41.2647 224.962 40.9514 224.622 40.718 224.189C40.4914 223.749 40.378 223.252 40.378 222.699ZM44.888 222.719C44.888 222.339 44.808 222.009 44.648 221.729C44.4947 221.449 44.2914 221.236 44.038 221.089C43.7847 220.942 43.5114 220.869 43.218 220.869C42.9247 220.869 42.6514 220.942 42.398 221.089C42.1447 221.229 41.938 221.439 41.778 221.719C41.6247 221.992 41.548 222.319 41.548 222.699C41.548 223.079 41.6247 223.412 41.778 223.699C41.938 223.986 42.1447 224.206 42.398 224.359C42.658 224.506 42.9314 224.579 43.218 224.579C43.5114 224.579 43.7847 224.506 44.038 224.359C44.2914 224.212 44.4947 223.999 44.648 223.719C44.808 223.432 44.888 223.099 44.888 222.719Z" fill="black"/>
<path d="M48.6754 220.769C48.842 220.489 49.062 220.272 49.3354 220.119C49.6154 219.959 49.9454 219.879 50.3254 219.879V221.059H50.0354C49.5887 221.059 49.2487 221.172 49.0154 221.399C48.7887 221.626 48.6754 222.019 48.6754 222.579V225.479H47.5354V219.969H48.6754V220.769Z" fill="black"/>
<path d="M53.3733 225.569C52.9399 225.569 52.5499 225.492 52.2033 225.339C51.8633 225.179 51.5933 224.966 51.3933 224.699C51.1933 224.426 51.0866 224.122 51.0733 223.789H52.2533C52.2733 224.022 52.3833 224.219 52.5833 224.379C52.7899 224.532 53.0466 224.609 53.3533 224.609C53.6733 224.609 53.9199 224.549 54.0933 224.429C54.2733 224.302 54.3633 224.142 54.3633 223.949C54.3633 223.742 54.2633 223.589 54.0633 223.489C53.8699 223.389 53.5599 223.279 53.1333 223.159C52.7199 223.046 52.3833 222.936 52.1233 222.829C51.8633 222.722 51.6366 222.559 51.4433 222.339C51.2566 222.119 51.1633 221.829 51.1633 221.469C51.1633 221.176 51.2499 220.909 51.4233 220.669C51.5966 220.422 51.8433 220.229 52.1633 220.089C52.4899 219.949 52.8633 219.879 53.2833 219.879C53.9099 219.879 54.4133 220.039 54.7933 220.359C55.1799 220.672 55.3866 221.102 55.4133 221.649H54.2733C54.2533 221.402 54.1533 221.206 53.9733 221.059C53.7933 220.912 53.5499 220.839 53.2433 220.839C52.9433 220.839 52.7133 220.896 52.5533 221.009C52.3933 221.122 52.3133 221.272 52.3133 221.459C52.3133 221.606 52.3666 221.729 52.4733 221.829C52.5799 221.929 52.7099 222.009 52.8633 222.069C53.0166 222.122 53.2433 222.192 53.5433 222.279C53.9433 222.386 54.2699 222.496 54.5233 222.609C54.7833 222.716 55.0066 222.876 55.1933 223.089C55.3799 223.302 55.4766 223.586 55.4833 223.939C55.4833 224.252 55.3966 224.532 55.2233 224.779C55.0499 225.026 54.8033 225.219 54.4833 225.359C54.1699 225.499 53.7999 225.569 53.3733 225.569Z" fill="black"/>
<path d="M31.0264 241.229V240.189H33.1064V247.479H31.9564V241.229H31.0264Z" fill="black"/>
<path d="M39.4201 247.569C38.9868 247.569 38.5968 247.492 38.2501 247.339C37.9101 247.179 37.6401 246.966 37.4401 246.699C37.2401 246.426 37.1335 246.122 37.1201 245.789H38.3001C38.3201 246.022 38.4301 246.219 38.6301 246.379C38.8368 246.532 39.0935 246.609 39.4001 246.609C39.7201 246.609 39.9668 246.549 40.1401 246.429C40.3201 246.302 40.4101 246.142 40.4101 245.949C40.4101 245.742 40.3101 245.589 40.1101 245.489C39.9168 245.389 39.6068 245.279 39.1801 245.159C38.7668 245.046 38.4301 244.936 38.1701 244.829C37.9101 244.722 37.6835 244.559 37.4901 244.339C37.3035 244.119 37.2101 243.829 37.2101 243.469C37.2101 243.176 37.2968 242.909 37.4701 242.669C37.6435 242.422 37.8901 242.229 38.2101 242.089C38.5368 241.949 38.9101 241.879 39.3301 241.879C39.9568 241.879 40.4601 242.039 40.8401 242.359C41.2268 242.672 41.4335 243.102 41.4601 243.649H40.3201C40.3001 243.402 40.2001 243.206 40.0201 243.059C39.8401 242.912 39.5968 242.839 39.2901 242.839C38.9901 242.839 38.7601 242.896 38.6001 243.009C38.4401 243.122 38.3601 243.272 38.3601 243.459C38.3601 243.606 38.4135 243.729 38.5201 243.829C38.6268 243.929 38.7568 244.009 38.9101 244.069C39.0635 244.122 39.2901 244.192 39.5901 244.279C39.9901 244.386 40.3168 244.496 40.5701 244.609C40.8301 244.716 41.0535 244.876 41.2401 245.089C41.4268 245.302 41.5235 245.586 41.5301 245.939C41.5301 246.252 41.4435 246.532 41.2701 246.779C41.0968 247.026 40.8501 247.219 40.5301 247.359C40.2168 247.499 39.8468 247.569 39.4201 247.569Z" fill="black"/>
<path d="M44.0919 242.899V245.949C44.0919 246.156 44.1386 246.306 44.2319 246.399C44.3319 246.486 44.4986 246.529 44.7319 246.529H45.4319V247.479H44.5319C44.0186 247.479 43.6253 247.359 43.3519 247.119C43.0786 246.879 42.9419 246.489 42.9419 245.949V242.899H42.2919V241.969H42.9419V240.599H44.0919V241.969H45.4319V242.899H44.0919Z" fill="black"/>
<path d="M46.1026 244.699C46.1026 244.146 46.216 243.656 46.4426 243.229C46.676 242.802 46.9893 242.472 47.3826 242.239C47.7826 241.999 48.2226 241.879 48.7026 241.879C49.136 241.879 49.5126 241.966 49.8326 242.139C50.1593 242.306 50.4193 242.516 50.6126 242.769V241.969H51.7626V247.479H50.6126V246.659C50.4193 246.919 50.156 247.136 49.8226 247.309C49.4893 247.482 49.1093 247.569 48.6826 247.569C48.2093 247.569 47.776 247.449 47.3826 247.209C46.9893 246.962 46.676 246.622 46.4426 246.189C46.216 245.749 46.1026 245.252 46.1026 244.699ZM50.6126 244.719C50.6126 244.339 50.5326 244.009 50.3726 243.729C50.2193 243.449 50.016 243.236 49.7626 243.089C49.5093 242.942 49.236 242.869 48.9426 242.869C48.6493 242.869 48.376 242.942 48.1226 243.089C47.8693 243.229 47.6626 243.439 47.5026 243.719C47.3493 243.992 47.2726 244.319 47.2726 244.699C47.2726 245.079 47.3493 245.412 47.5026 245.699C47.6626 245.986 47.8693 246.206 48.1226 246.359C48.3826 246.506 48.656 246.579 48.9426 246.579C49.236 246.579 49.5093 246.506 49.7626 246.359C50.016 246.212 50.2193 245.999 50.3726 245.719C50.5326 245.432 50.6126 245.099 50.6126 244.719Z" fill="black"/>
<path d="M54.4 242.769C54.5667 242.489 54.7866 242.272 55.06 242.119C55.34 241.959 55.67 241.879 56.05 241.879V243.059H55.76C55.3133 243.059 54.9733 243.172 54.74 243.399C54.5133 243.626 54.4 244.019 54.4 244.579V247.479H53.26V241.969H54.4V242.769Z" fill="black"/>
<path d="M291.504 158.919V158.059L294.864 153.239H296.244V157.929H297.174V158.919H296.244V160.439H295.124V158.919H291.504ZM295.174 154.399L292.814 157.929H295.174V154.399Z" fill="#0D0C22"/>
<path d="M299.349 156.629C298.655 156.282 298.309 155.735 298.309 154.989C298.309 154.629 298.399 154.299 298.579 153.999C298.759 153.699 299.029 153.462 299.389 153.289C299.749 153.109 300.189 153.019 300.709 153.019C301.222 153.019 301.659 153.109 302.019 153.289C302.385 153.462 302.659 153.699 302.839 153.999C303.019 154.299 303.109 154.629 303.109 154.989C303.109 155.362 303.012 155.692 302.819 155.979C302.632 156.259 302.382 156.475 302.069 156.629C302.449 156.769 302.749 156.999 302.969 157.319C303.189 157.632 303.299 158.002 303.299 158.429C303.299 158.862 303.189 159.245 302.969 159.579C302.749 159.912 302.442 160.169 302.049 160.349C301.655 160.529 301.209 160.619 300.709 160.619C300.209 160.619 299.762 160.529 299.369 160.349C298.982 160.169 298.679 159.912 298.459 159.579C298.239 159.245 298.129 158.862 298.129 158.429C298.129 157.995 298.239 157.622 298.459 157.309C298.679 156.995 298.975 156.769 299.349 156.629ZM302.019 155.129C302.019 154.755 301.902 154.469 301.669 154.269C301.435 154.069 301.115 153.969 300.709 153.969C300.309 153.969 299.992 154.069 299.759 154.269C299.525 154.469 299.409 154.759 299.409 155.139C299.409 155.472 299.529 155.745 299.769 155.959C300.015 156.165 300.329 156.269 300.709 156.269C301.089 156.269 301.402 156.162 301.649 155.949C301.895 155.735 302.019 155.462 302.019 155.129ZM300.709 157.129C300.269 157.129 299.909 157.239 299.629 157.459C299.355 157.672 299.219 157.982 299.219 158.389C299.219 158.769 299.352 159.079 299.619 159.319C299.885 159.552 300.249 159.669 300.709 159.669C301.162 159.669 301.519 159.549 301.779 159.309C302.045 159.069 302.179 158.762 302.179 158.389C302.179 157.989 302.042 157.679 301.769 157.459C301.502 157.239 301.149 157.129 300.709 157.129Z" fill="#0D0C22"/>
<path d="M305.726 156.629C305.032 156.282 304.686 155.735 304.686 154.989C304.686 154.629 304.776 154.299 304.956 153.999C305.136 153.699 305.406 153.462 305.766 153.289C306.126 153.109 306.566 153.019 307.086 153.019C307.599 153.019 308.036 153.109 308.396 153.289C308.762 153.462 309.036 153.699 309.216 153.999C309.396 154.299 309.486 154.629 309.486 154.989C309.486 155.362 309.389 155.692 309.196 155.979C309.009 156.259 308.759 156.475 308.446 156.629C308.826 156.769 309.126 156.999 309.346 157.319C309.566 157.632 309.676 158.002 309.676 158.429C309.676 158.862 309.566 159.245 309.346 159.579C309.126 159.912 308.819 160.169 308.426 160.349C308.032 160.529 307.586 160.619 307.086 160.619C306.586 160.619 306.139 160.529 305.746 160.349C305.359 160.169 305.056 159.912 304.836 159.579C304.616 159.245 304.506 158.862 304.506 158.429C304.506 157.995 304.616 157.622 304.836 157.309C305.056 156.995 305.352 156.769 305.726 156.629ZM308.396 155.129C308.396 154.755 308.279 154.469 308.046 154.269C307.812 154.069 307.492 153.969 307.086 153.969C306.686 153.969 306.369 154.069 306.136 154.269C305.902 154.469 305.786 154.759 305.786 155.139C305.786 155.472 305.906 155.745 306.146 155.959C306.392 156.165 306.706 156.269 307.086 156.269C307.466 156.269 307.779 156.162 308.026 155.949C308.272 155.735 308.396 155.462 308.396 155.129ZM307.086 157.129C306.646 157.129 306.286 157.239 306.006 157.459C305.732 157.672 305.596 157.982 305.596 158.389C305.596 158.769 305.729 159.079 305.996 159.319C306.262 159.552 306.626 159.669 307.086 159.669C307.539 159.669 307.896 159.549 308.156 159.309C308.422 159.069 308.556 158.762 308.556 158.389C308.556 157.989 308.419 157.679 308.146 157.459C307.879 157.239 307.526 157.129 307.086 157.129Z" fill="#0D0C22"/>
<path d="M296.343 176.029L293.563 182.439H292.413L295.223 176.149H291.523V175.179H296.343V176.029Z" fill="#0D0C22"/>
<path d="M297.179 180.919V180.059L300.539 175.239H301.919V179.929H302.849V180.919H301.919V182.439H300.799V180.919H297.179ZM300.849 176.399L298.489 179.929H300.849V176.399Z" fill="#0D0C22"/>
<path d="M291.123 198.189V197.149H293.203V204.439H292.053V198.189H291.123Z" fill="#0D0C22"/>
<path d="M294.629 202.919V202.059L297.989 197.239H299.369V201.929H300.299V202.919H299.369V204.439H298.249V202.919H294.629ZM298.299 198.399L295.939 201.929H298.299V198.399Z" fill="#0D0C22"/>
<path d="M291.555 222.699C291.555 221.545 291.749 220.645 292.135 219.999C292.529 219.345 293.202 219.019 294.155 219.019C295.109 219.019 295.779 219.345 296.165 219.999C296.559 220.645 296.755 221.545 296.755 222.699C296.755 223.865 296.559 224.779 296.165 225.439C295.779 226.092 295.109 226.419 294.155 226.419C293.202 226.419 292.529 226.092 292.135 225.439C291.749 224.779 291.555 223.865 291.555 222.699ZM295.635 222.699C295.635 222.159 295.599 221.702 295.525 221.329C295.459 220.955 295.319 220.652 295.105 220.419C294.892 220.179 294.575 220.059 294.155 220.059C293.735 220.059 293.419 220.179 293.205 220.419C292.992 220.652 292.849 220.955 292.775 221.329C292.709 221.702 292.675 222.159 292.675 222.699C292.675 223.259 292.709 223.729 292.775 224.109C292.842 224.489 292.982 224.795 293.195 225.029C293.415 225.262 293.735 225.379 294.155 225.379C294.575 225.379 294.892 225.262 295.105 225.029C295.325 224.795 295.469 224.489 295.535 224.109C295.602 223.729 295.635 223.259 295.635 222.699Z" fill="#858585"/>
<path d="M291.555 244.699C291.555 243.545 291.749 242.645 292.135 241.999C292.529 241.345 293.202 241.019 294.155 241.019C295.109 241.019 295.779 241.345 296.165 241.999C296.559 242.645 296.755 243.545 296.755 244.699C296.755 245.865 296.559 246.779 296.165 247.439C295.779 248.092 295.109 248.419 294.155 248.419C293.202 248.419 292.529 248.092 292.135 247.439C291.749 246.779 291.555 245.865 291.555 244.699ZM295.635 244.699C295.635 244.159 295.599 243.702 295.525 243.329C295.459 242.955 295.319 242.652 295.105 242.419C294.892 242.179 294.575 242.059 294.155 242.059C293.735 242.059 293.419 242.179 293.205 242.419C292.992 242.652 292.849 242.955 292.775 243.329C292.709 243.702 292.675 244.159 292.675 244.699C292.675 245.259 292.709 245.729 292.775 246.109C292.842 246.489 292.982 246.795 293.195 247.029C293.415 247.262 293.735 247.379 294.155 247.379C294.575 247.379 294.892 247.262 295.105 247.029C295.325 246.795 295.469 246.489 295.535 246.109C295.602 245.729 295.635 245.259 295.635 244.699Z" fill="#858585"/>
</svg>
