<svg width="390" height="2149" viewBox="0 0 390 2149" fill="none" xmlns="http://www.w3.org/2000/svg">
<path d="M449.25 2193.4C466.25 2544.4 -235.75 2316.4 -14.2502 2179.02C-102.75 2193.4 -50.2502 2058.81 -50.2502 2024.01C-50.2502 1989.22 52.7498 2059.71 139.25 2004.71C531.75 1727.71 449.25 2158.6 449.25 2193.4Z" fill="url(#paint0_linear_197_307)"/>
<path fill-rule="evenodd" clip-rule="evenodd" d="M381.296 1207.35C467.388 1205.54 504.156 1306.28 528.574 1388.94C550.292 1462.46 554.412 1545.21 495.614 1594.34C423.43 1654.65 315.444 1687.43 242.671 1627.83C176.209 1573.39 225.015 1476.39 251.927 1394.76C278.209 1315.04 297.449 1209.12 381.296 1207.35Z" fill="#A8D5BA"/>
<path fill-rule="evenodd" clip-rule="evenodd" d="M-108.704 1603.35C-22.6125 1601.54 14.1559 1702.28 38.5736 1784.94C60.2916 1858.46 64.4119 1941.21 5.61444 1990.34C-66.5696 2050.65 -174.556 2083.43 -247.329 2023.83C-313.791 1969.39 -264.985 1872.39 -238.073 1790.76C-211.791 1711.04 -192.551 1605.12 -108.704 1603.35Z" fill="#A8D5BA"/>
<path fill-rule="evenodd" clip-rule="evenodd" d="M20.1306 1342.77C-37.4124 1401.77 -129.261 1358.59 -200.7 1319.29C-264.24 1284.34 -321.893 1231.36 -314.33 1158.8C-305.046 1069.71 -253.082 975.149 -163.928 966.453C-82.5056 958.512 -51.5228 1056.62 -15.7909 1129.68C19.1057 1201.02 76.1736 1285.3 20.1306 1342.77Z" fill="#A8D5BA"/>
<path d="M518.291 1298.33C535.291 1649.33 -166.709 1421.33 54.791 1283.95C-33.709 1298.33 18.791 1163.74 18.791 1128.94C18.791 1094.15 121.791 1164.64 208.291 1109.64C600.791 832.636 518.291 1263.53 518.291 1298.33Z" fill="url(#paint1_linear_197_307)"/>
<path fill-rule="evenodd" clip-rule="evenodd" d="M461.296 241.353C547.388 239.54 584.156 340.279 608.574 422.937C630.292 496.455 634.412 579.209 575.614 628.338C503.43 688.652 395.444 721.427 322.671 661.826C256.209 607.394 305.015 510.389 331.927 428.761C358.209 349.042 377.449 243.118 461.296 241.353Z" fill="#A8D5BA"/>
<path fill-rule="evenodd" clip-rule="evenodd" d="M-28.704 637.353C57.3875 635.54 94.156 736.279 118.574 818.937C140.292 892.455 144.412 975.209 85.6145 1024.34C13.4305 1084.65 -94.5555 1117.43 -167.329 1057.83C-233.791 1003.39 -184.985 906.389 -158.073 824.761C-131.79 745.042 -112.551 639.118 -28.704 637.353Z" fill="#A8D5BA"/>
<path fill-rule="evenodd" clip-rule="evenodd" d="M100.131 376.767C42.5876 435.775 -49.2612 392.589 -120.7 353.294C-184.24 318.343 -241.893 265.359 -234.33 192.796C-225.046 103.711 -173.082 9.14893 -83.9279 0.453161C-2.50558 -7.4885 28.4772 90.6223 64.2091 163.677C99.1057 235.024 156.174 319.297 100.131 376.767Z" fill="#A8D5BA"/>
<defs>
<linearGradient id="paint0_linear_197_307" x1="154.146" y1="0" x2="154.146" y2="2379.6" gradientUnits="userSpaceOnUse">
<stop offset="0.231281" stop-color="#A8D5BA"/>
<stop offset="0.560857" stop-color="#F9F9F9"/>
</linearGradient>
<linearGradient id="paint1_linear_197_307" x1="154.146" y1="0" x2="154.146" y2="2379.6" gradientUnits="userSpaceOnUse">
<stop offset="0.231281" stop-color="#A8D5BA"/>
<stop offset="0.560857" stop-color="#F9F9F9"/>
</linearGradient>
</defs>
</svg>
